<svg xmlns="http://www.w3.org/2000/svg" data-name="1" viewBox="0 0 361.83 600"><path fill="#382b32" d="m216.12 35.78-7.22 3.72v401.9l7.22-3.72V35.78z"/><path fill="#58444f" d="M201.69 35.34v401.91l7.21 4.15V39.5l-7.21-4.16z"/><path fill="#86727d" d="m201.69 35.34 7.21 4.16 7.22-3.72-7.22-4.15-7.21 3.71z"/><path fill="#b4725a" d="m338.24 413.2-69.91 39.31v11.27l69.91-39.31V413.2z"/><path fill="#c99985" d="M139.09 378.48v11.27l129.24 74.03v-11.27l-129.24-74.03z"/><path fill="#e5b8a8" d="m139.09 378.48 129.24 74.03 69.91-39.31L209 339.17l-69.91 39.31z"/><path fill="#b4725a" d="m338.24 293.96-69.91 39.31v11.27l69.91-39.31v-11.27z"/><path fill="#c99985" d="M139.09 259.24v11.27l129.24 74.03v-11.27l-129.24-74.03z"/><path fill="#e5b8a8" d="m139.09 259.24 129.24 74.03 69.91-39.31L209 219.93l-69.91 39.31z"/><path fill="#a0d346" d="m254.33 247.7-50.74 28.91v8.48l50.74-28.9v-8.49z"/><path fill="#e3e5e1" d="m254.33 249.19-50.74 28.95v5.64l50.74-28.94v-5.65z"/><path fill="#bee862" d="M163.48 253.63v8.48l40.11 22.98v-8.48l-40.11-22.98z"/><path fill="#fff" d="M164.68 255.85v5.63l38.91 22.3v-5.63l-38.91-22.3z"/><path fill="#87be33" d="m163.48 253.63 40.11 22.98 50.74-28.91-40.12-22.97-50.73 28.9z"/><path fill="#c96fab" d="m250.94 235.97-46.53 26.51v7.78l46.53-26.51v-7.78z"/><path fill="#e3e5e1" d="m250.94 237.33-46.53 26.55v5.18l46.53-26.55v-5.18z"/><path fill="#ea8ccf" d="M167.62 241.41v7.78l36.79 21.07v-7.78l-36.79-21.07z"/><path fill="#fff" d="M168.72 243.44v5.16l35.69 20.46v-5.17l-35.69-20.45z"/><path fill="#a7648e" d="m167.62 241.41 36.79 21.07 46.53-26.51-36.79-21.08-46.53 26.52z"/><path fill="#c63838" d="m247.79 229.48-42.64 24.29v7.13l42.64-24.29v-7.13z"/><path fill="#e3e5e1" d="m247.79 230.73-42.64 24.33v4.74l42.64-24.32v-4.75z"/><path fill="#e54141" d="M171.44 234.47v7.12l33.71 19.31v-7.13l-33.71-19.3z"/><path fill="#fff" d="M172.45 236.33v4.73l32.7 18.74v-4.73l-32.7-18.74z"/><path fill="#f25a55" d="m171.44 234.47 33.71 19.3 42.64-24.29-33.71-19.31-42.64 24.3z"/><path fill="#8e5644" d="m250.6 232.28-4.66 2.6 36.87 78.45 4.65-2.6-36.86-78.45z"/><path fill="#8e5644" d="m240.15 283.06 47.31 27.67 10.45-50.78-47.31-27.67-10.45 50.78z"/><path fill="#8e5644" d="m252.4 276.14 47.31 27.68-8.71-28.74-47.31-27.68 8.71 28.74z"/><path fill="#b4725a" d="m235.5 285.65 47.31 27.68 10.45-50.78-47.32-27.67-10.44 50.77z"/><path fill="#92bef4" d="m241.24 282.56 37.7 22.16 8.1-39.36-37.7-22.17-8.1 39.37z"/><path fill="#b4725a" d="m338.24 176.36-69.91 39.3v11.28l69.91-39.31v-11.27z"/><path fill="#c99985" d="M139.09 141.63v11.28l129.24 74.03v-11.28l-129.24-74.03z"/><path fill="#e5b8a8" d="m139.09 141.63 129.24 74.03 69.91-39.3L209 102.33l-69.91 39.3z"/><path fill="#dbbb35" d="m208.59 309.1-38.48 21.75-17 44.6 38.47-21.76 17.01-44.59z"/><path fill="#ffe98d" d="m182.07 331.16-6.02-3.53 32.54-18.53-.91-.54-38.48 21.76 7.98 4.67 38.47-21.75-1.04-.61-32.54 18.53z"/><path fill="#dbbb35" d="m215.65 313.24-38.47 21.75-17.01 44.6 38.48-21.76 17-44.59z"/><path fill="#fcdc4d" d="m169.2 330.32-17 44.6 7.97 4.67 17.01-44.6-7.98-4.67z"/><path fill="#fff" d="m171.32 330.32 6.03 3.53 36.19-20.61-6.03-3.54-36.19 20.62z"/><path fill="#8eb9ed" d="m274.41 95.45-38.48 21.76v57.88l38.48-21.75V95.45z"/><path fill="#bdf" d="m247.9 117.52-6.03-3.53 32.53-18.54-.9-.53-38.48 21.76 7.98 4.67 38.47-21.76-1.04-.6-32.53 18.53z"/><path fill="#8eb9ed" d="M281.47 99.6 243 121.35v57.88l38.47-21.75V99.6z"/><path fill="#739fdd" d="M235.02 116.68v57.88l7.98 4.67v-57.88l-7.98-4.67z"/><path fill="#fff" d="m237.15 116.68 6.02 3.53 36.19-20.61-6.03-3.54-36.18 20.62z"/><path fill="#8eb9ed" d="m222.44 311.54-38.47 21.75v57.89l38.47-21.76v-57.88z"/><path fill="#ea8ccf" d="m195.93 333.6-6.02-3.53 32.53-18.53-.91-.54-38.47 21.76 7.97 4.67 38.48-21.75-1.04-.61-32.54 18.53z"/><path fill="#c96fab" d="m229.51 315.68-38.48 21.75v57.89l38.48-21.76v-57.88z"/><path fill="#a7648e" d="M183.06 332.76v57.88l7.97 4.68v-57.89l-7.97-4.67z"/><path fill="#fff" d="m185.18 332.76 6.03 3.53 36.19-20.61-6.03-3.53-36.19 20.61z"/><path fill="#8eb9ed" d="m235.46 318.43-38.47 21.76v57.88l38.47-21.75v-57.89z"/><path fill="#bdf" d="m208.95 340.5-6.03-3.54 32.54-18.53-.91-.53-38.47 21.75 7.97 4.68 38.48-21.76-1.04-.61-32.54 18.54z"/><path fill="#8eb9ed" d="m242.53 322.57-38.48 21.76v57.88l38.48-21.75v-57.89z"/><path fill="#739fdd" d="M196.08 339.65v57.89l7.97 4.67v-57.88l-7.97-4.68z"/><path fill="#fff" d="m198.2 339.65 6.02 3.54 36.19-20.62-6.02-3.53-36.19 20.61z"/><path fill="#dbbb35" d="m289.66 103.27-38.48 21.75v57.88l38.48-21.75v-57.88z"/><path fill="#ffe98d" d="m263.15 125.33-6.03-3.53 32.54-18.54-.91-.53-38.48 21.76 7.98 4.67 38.47-21.75-1.04-.61-32.53 18.53z"/><path fill="#dbbb35" d="m296.72 107.41-38.47 21.75v57.88l38.47-21.75v-57.88z"/><path fill="#fcdc4d" d="M250.27 124.49v57.88l7.98 4.67v-57.88l-7.98-4.67z"/><path fill="#fff" d="m252.4 124.49 6.02 3.53 36.19-20.61-6.03-3.54-36.18 20.62z"/><path fill="#f25a55" d="m247.2 324.3-38.48 21.75v57.89l38.48-21.76V324.3z"/><path fill="#ffabab" d="m220.68 346.36-6.02-3.53 32.53-18.53-.9-.54-38.48 21.76 7.97 4.67 38.48-21.75-1.04-.61-32.54 18.53z"/><path fill="#f77f7f" d="m254.26 328.44-38.48 21.75v57.88l38.48-21.75v-57.88z"/><path fill="#f25a55" d="M207.81 345.52v57.88l7.97 4.67v-57.88l-7.97-4.67z"/><path fill="#fff" d="m209.93 345.52 6.03 3.53 36.19-20.61-6.03-3.54-36.19 20.62z"/><path fill="#dbbb35" d="m259.16 330.58-38.48 21.75v57.88l38.48-21.75v-57.88z"/><path fill="#ffe98d" d="m232.65 352.64-6.03-3.53 32.53-18.54-.9-.53-38.48 21.76 7.98 4.67 38.47-21.75-1.04-.61-32.53 18.53z"/><path fill="#dbbb35" d="m266.22 334.72-38.47 21.75v57.88l38.47-21.75v-57.88z"/><path fill="#fcdc4d" d="M219.77 351.8v57.88l7.98 4.67v-57.88l-7.98-4.67z"/><path fill="#fff" d="m221.9 351.8 6.02 3.53 36.19-20.61-6.03-3.54-36.18 20.62z"/><path fill="#f25a55" d="m300.71 109.26-38.47 21.75v57.89l38.47-21.76v-57.88z"/><path fill="#ffabab" d="m274.2 131.32-6.03-3.53 32.54-18.53-.91-.53-38.48 21.75 7.98 4.67 38.47-21.75-1.04-.61-32.53 18.53z"/><path fill="#f77f7f" d="m307.77 113.4-38.47 21.75v57.89l38.47-21.76V113.4z"/><path fill="#f25a55" d="M261.32 130.48v57.89l7.98 4.67v-57.89l-7.98-4.67z"/><path fill="#fff" d="m263.45 130.48 6.02 3.53 36.19-20.61-6.03-3.53-36.18 20.61z"/><path fill="#8eb9ed" d="m311.97 114.93-38.47 21.76v57.88l38.47-21.75v-57.89z"/><path fill="#bdf" d="m285.46 137-6.03-3.53 32.54-18.54-.91-.53-38.47 21.76 7.97 4.67 38.48-21.76-1.04-.61L285.46 137z"/><path fill="#8eb9ed" d="m319.04 119.07-38.48 21.76v57.88l38.48-21.75v-57.89z"/><path fill="#739fdd" d="M272.59 136.16v57.88l7.97 4.67v-57.88l-7.97-4.67z"/><path fill="#fff" d="m274.71 136.16 6.03 3.53 36.18-20.62-6.02-3.53-36.19 20.62z"/><path fill="#8eb9ed" d="m271.79 336.86-38.48 21.75v57.89l38.48-21.76v-57.88z"/><path fill="#ea8ccf" d="m245.27 358.92-6.02-3.53 32.53-18.53-.9-.54-38.48 21.76 7.98 4.67L278.85 341l-1.04-.61-32.54 18.53z"/><path fill="#c96fab" d="m278.85 341-38.47 21.75v57.89l38.47-21.76V341z"/><path fill="#a7648e" d="M232.4 358.08v57.88l7.98 4.68v-57.89l-7.98-4.67z"/><path fill="#fff" d="m234.52 358.08 6.03 3.53L276.74 341l-6.03-3.53-36.19 20.61z"/><path fill="#dbbb35" d="m283.05 342.59-38.48 21.76v57.88l38.48-21.75v-57.89z"/><path fill="#bee862" d="m256.54 364.66-6.03-3.53 32.54-18.54-.91-.53-38.48 21.75 7.98 4.68 38.47-21.76-1.04-.61-32.53 18.54z"/><path fill="#87be33" d="m290.11 346.73-38.47 21.76v57.88l38.47-21.75v-57.89z"/><path fill="#a0d346" d="M243.66 363.81v57.89l7.98 4.67v-57.88l-7.98-4.68z"/><path fill="#fff" d="m245.79 363.81 6.02 3.54L288 346.73l-6.03-3.53-36.18 20.61z"/><path fill="#f25a55" d="m294.1 348.59-38.47 21.75v57.88l38.47-21.75v-57.88z"/><path fill="#ffabab" d="m267.59 370.65-6.03-3.53 32.54-18.54-.91-.53-38.47 21.76 7.97 4.67 38.48-21.75-1.04-.61-32.54 18.53z"/><path fill="#f77f7f" d="m301.17 352.73-38.48 21.75v57.88l38.48-21.75v-57.88z"/><path fill="#f25a55" d="M254.72 369.81v57.88l7.97 4.67v-57.88l-7.97-4.67z"/><path fill="#fff" d="m256.84 369.81 6.03 3.53 36.18-20.61-6.02-3.54-36.19 20.62z"/><path fill="#8eb9ed" d="m305.37 354.26-38.48 21.75v57.89l38.48-21.76v-57.88z"/><path fill="#bdf" d="m278.85 376.32-6.03-3.53 32.54-18.53-.91-.53-38.47 21.75 7.97 4.67 38.48-21.75-1.04-.61-32.54 18.53z"/><path fill="#8eb9ed" d="m312.43 358.4-38.48 21.75v57.89l38.48-21.76V358.4z"/><path fill="#739fdd" d="M265.98 375.48v57.89l7.97 4.67v-57.89l-7.97-4.67z"/><path fill="#fff" d="m268.1 375.48 6.03 3.53 36.19-20.61-6.03-3.53-36.19 20.61z"/><path fill="#382b32" d="m275.64 141.01-7.21 3.72v401.9l7.21-3.72v-401.9z"/><path fill="#58444f" d="M261.22 140.57v401.91l7.21 4.15v-401.9l-7.21-4.16z"/><path fill="#86727d" d="m261.22 140.57 7.21 4.16 7.21-3.72-7.21-4.16-7.21 3.72z"/><path fill="#382b32" d="m338.24 105.54-7.21 3.72v401.9l7.21-3.72v-401.9z"/><path fill="#58444f" d="M323.81 105.11v401.9l7.22 4.15v-401.9l-7.22-4.15z"/><path fill="#86727d" d="m323.81 105.11 7.22 4.15 7.21-3.72-7.21-4.15-7.22 3.72z"/><path fill="#382b32" d="m153.52 71.25-7.21 3.72v401.9l7.21-3.72V71.25z"/><path fill="#58444f" d="M139.09 70.81v401.9l7.22 4.16V74.97l-7.22-4.16z"/><path fill="#86727d" d="m139.09 70.81 7.22 4.16 7.21-3.72-7.21-4.16-7.22 3.72z"/><path fill="#8e5644" d="m192.72 79.31-4.65 2.6 20.78 68.81 4.65-2.6-20.78-68.81z"/><path fill="#8e5644" d="m182.28 130.09 31.22 18.03 10.45-50.78-31.23-18.03-10.44 50.78z"/><path fill="#8e5644" d="m194.52 123.18 31.23 18.03-8.71-28.74-31.23-18.03 8.71 28.74z"/><path fill="#b4725a" d="m177.63 132.69 31.22 18.03 10.45-50.78-31.23-18.03-10.44 50.78z"/><path fill="#ffea94" d="m183.37 129.59 21.62 12.52 8.1-39.36-21.62-12.52-8.1 39.36z"/><path fill="#031435" d="M141.09 560.86c-6.19 11.65-33 9.52-59.88-4.75s-43.66-35.29-37.47-46.94 33-9.53 59.87 4.74 43.66 35.29 37.48 46.95Z" opacity=".16"/><path fill="#e4f0f7" d="M32 283.64c-4.45-1.8-9.06-11.43-5.18-18.27l25.87-55.14c7.63-11.64 12.66-9.26 19.5-5.38a14.33 14.33 0 0 1 5.38 19.49l-29.8 52.51c-3.88 6.84-11.34 8.59-15.77 6.79Z"/><path fill="#e4f0f7" d="m62 332.09-36.77-50.8A14.34 14.34 0 0 1 31.29 262c7-3.62 13.4-.1 17 6.88L77.07 328c.44 2.87-11.49 11.07-15.07 4.09Z"/><path fill="#3d63a5" d="M66.23 530.71c8 0 9.59-3.9 9.59-11.08L82.08 434c0-7.18-7.9 2.44-15.85 2.44-8 0-13 1.34-13 8.52l1.39 76c.04 7.2 3.66 9.75 11.61 9.75Z"/><path fill="#3d63a5" d="M90.59 522.51c2.11 3.53 0 7.77-8.9 10.91-9.36 3.29-23.84 12.06-25.87 2.44-3.29-15.64-.48-12.23 18.26-15.24 9.74-1.57 14.41-1.62 16.51 1.89Z"/><path fill="#ffb5a6" d="M106.05 213.66a68.09 68.09 0 0 1 2.41-15.7c-5.19-.29-12-19.44-16.57-20.93-4.77-1.54-7.28 14.59-7.28 14.59-2.61 10-3.92 16-3.92 16 17.2 13.38 25.36 6.04 25.36 6.04Z"/><path fill="#e4f0f7" d="M112.69 217c-2.11-3.33 0-7.85 0-7.85-23.25 7.23-30.69-7.53-30.69-7.53l-1.31 6C65 210.34 78 222.12 78 222.12c26.57 15.7 31.4 2.11 31.4 2.11Z"/><path fill="#3d63a5" d="M101.59 459.45c9.13 0 13.89-6.87 13.89-16l2.71-87.25a16.65 16.65 0 0 0-16.6-16.61A16.65 16.65 0 0 0 85 356.2l3.32 90.87c-.02 9.14 4.13 12.38 13.27 12.38Z"/><path fill="#3d63a5" d="M101.59 543.1c8 0 9.59-3.89 9.59-11.07l4-86c0-7.18-5.68 2.88-13.63 2.88-8 0-14.46-4.83-14.46 2.35L90 533.37c0 7.18 3.64 9.73 11.59 9.73ZM68.38 447.06c9.13 0 13.88-6.87 13.88-16L85 343.8a16.66 16.66 0 0 0-16.6-16.61 16.66 16.66 0 0 0-16.63 16.61l3.32 90.88c0 9.13 4.15 12.38 13.29 12.38Z"/><path fill="#f55" d="M81.9 217c19.62 9 30.79 0 30.79 0 14.8 10 15.1 13.28 15.1 13.28-7.85 43.18-4.79 136.16-4.79 136.16-54.62-4.73-78-18.71-78-18.71-.61-23.85 9.63-52.52 9.63-52.52 2.71-17.81-.22-39-.22-39-8.76-49.52 6.34-53.75 6.34-53.75 11.17-3.62 19.93 5.14 19.93 5.14-9.35 3.95 1.22 9.4 1.22 9.4Z"/><path fill="#e4f0f7" d="M177.77 279.36c-2.32 4.2-12.43 7.63-18.76 3L107.38 250a14.34 14.34 0 0 1-3-20 14.35 14.35 0 0 1 20-3l48.55 35.87c6.32 4.68 7.16 12.29 4.84 16.49Z"/><path fill="#e4f0f7" d="m214.87 244.42-38.5 39.9a14.34 14.34 0 0 1-19.81-4.05c-4.34-6.56-1.51-13.32 6.75-15l41-27.12s17.12 1.94 10.56 6.27Z"/><path fill="#3d63a5" d="M126.06 532.83c2.11 3.54 0 7.77-8.9 10.91-9.36 3.29-23.84 12.06-25.87 2.44-3.29-15.64-.48-12.18 18.26-15.24 9.74-1.56 14.45-1.64 16.51 1.89Z"/><path fill="#ffb5a6" d="M128.12 177.5c1.4 12.66-3.83 25.53-14.62 27s-23-9-24.43-21.62 6.21-24.13 17-25.62 20.65 7.58 22.05 20.24Z"/><path fill="#3d63a5" d="M92.82 170.38c24.28 7.14 35.57-12.51 35.57-12.51-25.62-29.71-51.82-1.35-51.82-1.35-5.58 7.56-5.08 18.06-5.08 18.06 14.51.21 21.33-4.2 21.33-4.2Z"/><path fill="#3d63a5" d="M120.78 166c-6.27 39.87-34.4 38.65-34.4 38.65-11.37-10-14.89-30.09-14.89-30.09 24.76-21.82 49.29-8.56 49.29-8.56Z"/><path fill="#ffb5a6" d="M212.59 246.32c-6.12-6.62-10-6.95-10-6.95C204.35 232.74 211 227 211 227c1.89-1.74 4.44-5.19 6.88-4.39 2.17.71 4.71 6.08 5.28 8.2.73 2.68-.24 5.12-1.7 7.35-.46.72-8.13 8.95-8.87 8.16Z"/></svg>